<svg width="63" height="70" viewBox="0 0 63 70" fill="none" xmlns="http://www.w3.org/2000/svg">
<g id="logo">
<g id="Group 73">
<path id="Polygon 7" d="M34.7382 1.40029C32.8395 0.304072 30.5002 0.304071 28.6015 1.40029L3.91391 15.6537C2.01521 16.7499 0.845564 18.7758 0.845564 20.9682V49.475C0.845564 51.6674 2.01521 53.6933 3.91391 54.7895L28.6015 69.0429C30.5002 70.1391 32.8395 70.1391 34.7382 69.0429L59.4258 54.7895C61.3245 53.6933 62.4941 51.6674 62.4941 49.475V20.9682C62.4941 18.7758 61.3245 16.7499 59.4258 15.6537L34.7382 1.40029Z" fill="url(#paint0_linear_437_72417)"/>
</g>
<g id="Subtract">
<path d="M24.2464 16.709C26.0731 15.9758 28.0335 15.5052 30.0808 15.3438V21.7292C29.1819 21.8339 28.3097 22.0264 27.4731 22.2979L24.2464 16.709Z" fill="white"/>
<path d="M24.5754 23.6346C20.6821 26.0234 18.0851 30.3194 18.0851 35.2219C18.0851 42.7245 24.1672 48.8066 31.6698 48.8066C39.1724 48.8066 45.2545 42.7245 45.2545 35.2219C45.2545 30.3194 42.6575 26.0234 38.7642 23.6346L41.9434 18.1281C47.736 21.617 51.6104 27.967 51.6104 35.2219C51.6104 46.2348 42.6827 55.1624 31.6698 55.1624C20.657 55.1624 11.7293 46.2348 11.7293 35.2219C11.7293 27.967 15.6036 21.617 21.3962 18.1281L24.5754 23.6346Z" fill="white"/>
<path d="M39.0932 16.709C37.2665 15.9758 35.3061 15.5052 33.2588 15.3438V21.7292C34.1577 21.8339 35.0299 22.0264 35.8665 22.2979L39.0932 16.709Z" fill="white"/>
</g>
</g>
<defs>
<linearGradient id="paint0_linear_437_72417" x1="45.2454" y1="7.65374" x2="16.7197" y2="61.7949" gradientUnits="userSpaceOnUse">
<stop stop-color="#66CC99"/>
<stop offset="1" stop-color="#59B286"/>
</linearGradient>
</defs>
</svg>
