<svg width="402" height="70" viewBox="0 0 402 70" fill="none" xmlns="http://www.w3.org/2000/svg">
<g id="Frame 77">
<g id="logo">
<g id="Group 74">
<g id="Group 73">
<path id="Polygon 7" d="M34.7382 1.43837C32.8395 0.342158 30.5002 0.342157 28.6015 1.43837L3.91391 15.6918C2.01521 16.788 0.845564 18.8139 0.845564 21.0063V49.5131C0.845564 51.7055 2.01521 53.7314 3.91391 54.8276L28.6015 69.081C30.5002 70.1772 32.8395 70.1772 34.7382 69.081L59.4258 54.8276C61.3245 53.7314 62.4941 51.7055 62.4941 49.5131V21.0063C62.4941 18.8139 61.3245 16.788 59.4258 15.6918L34.7382 1.43837Z" fill="url(#paint0_linear_437_72402)"/>
</g>
<g id="Subtract">
<path d="M24.2469 16.747C26.0736 16.0139 28.034 15.5432 30.0813 15.3818V21.7673C29.1824 21.872 28.3102 22.0645 27.4736 22.3359L24.2469 16.747Z" fill="white"/>
<path d="M24.5759 23.6727C20.6826 26.0615 18.0856 30.3575 18.0856 35.26C18.0856 42.7626 24.1677 48.8447 31.6703 48.8447C39.1729 48.8447 45.255 42.7626 45.255 35.26C45.255 30.3575 42.658 26.0615 38.7647 23.6727L41.9439 18.1662C47.7365 21.6551 51.6108 28.0051 51.6108 35.26C51.6108 46.2728 42.6832 55.2005 31.6703 55.2005C20.6574 55.2005 11.7298 46.2728 11.7298 35.26C11.7298 28.0051 15.6041 21.6551 21.3967 18.1662L24.5759 23.6727Z" fill="white"/>
<path d="M39.0937 16.747C37.267 16.0139 35.3066 15.5432 33.2593 15.3818V21.7673C34.1582 21.872 35.0304 22.0645 35.867 22.3359L39.0937 16.747Z" fill="white"/>
</g>
</g>
<g id="monitor 365">
<path id="Vector" d="M387.997 52.7859C386.721 52.7859 385.395 52.5896 384.021 52.1968C382.679 51.8041 381.533 51.215 380.584 50.4295C380.224 50.1349 379.946 49.7585 379.75 49.3003C379.553 48.8421 379.455 48.4003 379.455 47.9748C379.455 47.5166 379.651 47.0747 380.044 46.6492C380.47 46.191 381.042 45.9619 381.762 45.9619C382.286 45.9619 382.892 46.2238 383.579 46.7474C384.234 47.1729 384.921 47.5329 385.641 47.8275C386.394 48.1221 387.163 48.2693 387.948 48.2693C389.65 48.2693 391.123 47.9584 392.367 47.3366C393.61 46.7147 394.56 45.8474 395.214 44.7346C395.901 43.5891 396.245 42.2636 396.245 40.758C396.245 39.3507 395.934 38.1561 395.312 37.1742C394.69 36.1596 393.839 35.3741 392.759 34.8177C391.712 34.2613 390.534 33.9831 389.225 33.9831C388.145 33.9831 387.195 34.1631 386.377 34.5231C385.559 34.8504 384.823 35.1941 384.168 35.5541C383.513 35.8814 382.908 36.045 382.352 36.045C381.501 36.045 380.862 35.865 380.437 35.505C380.011 35.1123 379.733 34.6541 379.602 34.1304C379.504 33.574 379.488 33.0667 379.553 32.6085L381.272 20.286C381.37 19.7296 381.632 19.2714 382.057 18.9114C382.515 18.5186 383.072 18.3223 383.726 18.3223H398.111C398.765 18.3223 399.305 18.5514 399.731 19.0096C400.189 19.4351 400.418 19.9751 400.418 20.6297C400.418 21.2842 400.189 21.8243 399.731 22.2498C399.305 22.6752 398.765 22.888 398.111 22.888H384.954L385.494 22.4461L383.923 33.0012L383.186 31.5284C383.481 31.2011 383.972 30.8902 384.659 30.5957C385.379 30.2684 386.181 30.0065 387.065 29.8102C387.981 29.5811 388.897 29.4665 389.814 29.4665C391.974 29.4665 393.905 29.9574 395.607 30.9393C397.342 31.8885 398.7 33.214 399.682 34.9159C400.663 36.6178 401.154 38.5488 401.154 40.7089C401.154 43.1309 400.614 45.2583 399.534 47.0911C398.454 48.8912 396.932 50.2985 394.969 51.3131C393.005 52.295 390.681 52.7859 387.997 52.7859Z" fill="#66CC99"/>
<path id="Vector_2" d="M363.409 52.933C361.576 52.933 359.939 52.573 358.499 51.853C357.092 51.1329 355.897 50.1511 354.915 48.9074C353.966 47.6637 353.23 46.2727 352.706 44.7344C352.215 43.1634 351.97 41.5597 351.97 39.9232C351.97 38.6468 352.117 37.1904 352.412 35.5539C352.706 33.8847 353.197 32.1665 353.884 30.3991C354.572 28.599 355.472 26.8807 356.585 25.2443C357.73 23.6078 359.137 22.135 360.807 20.8258C362.508 19.484 364.521 18.4694 366.845 17.782C367.172 17.6839 367.483 17.6348 367.778 17.6348C368.432 17.6348 369.005 17.8148 369.496 18.1748C370.02 18.5021 370.282 19.1076 370.282 19.9913C370.282 20.5804 370.085 21.104 369.693 21.5623C369.3 21.9877 368.776 22.2987 368.122 22.495C366.943 22.8878 365.765 23.4769 364.587 24.2624C363.409 25.0479 362.312 25.9807 361.298 27.0607C360.283 28.1408 359.416 29.3518 358.696 30.6937C358.008 32.0028 357.501 33.3774 357.174 34.8175L355.946 35.0139C356.437 34.2611 357.059 33.5411 357.812 32.8538C358.597 32.1337 359.514 31.5446 360.561 31.0864C361.608 30.5955 362.803 30.35 364.145 30.35C365.487 30.35 366.78 30.6446 368.023 31.2337C369.267 31.8228 370.38 32.641 371.362 33.6884C372.376 34.7357 373.162 35.9467 373.718 37.3213C374.307 38.6959 374.602 40.1523 374.602 41.6906C374.602 43.7198 374.095 45.6017 373.08 47.3364C372.098 49.0383 370.756 50.3965 369.054 51.4111C367.385 52.4257 365.503 52.933 363.409 52.933ZM363.359 48.3673C364.57 48.3673 365.65 48.0891 366.6 47.5327C367.549 46.9436 368.302 46.1418 368.858 45.1272C369.414 44.1126 369.693 42.967 369.693 41.6906C369.693 40.4142 369.431 39.2687 368.907 38.2541C368.383 37.2395 367.647 36.4212 366.698 35.7994C365.781 35.1775 364.701 34.8666 363.458 34.8666C362.181 34.8666 361.052 35.1775 360.07 35.7994C359.088 36.4212 358.319 37.2558 357.763 38.3032C357.206 39.3178 356.928 40.4633 356.928 41.7397C356.928 42.9179 357.206 44.0307 357.763 45.0781C358.319 46.0927 359.072 46.8945 360.021 47.4836C361.003 48.0728 362.116 48.3673 363.359 48.3673Z" fill="#66CC99"/>
<path id="Vector_3" d="M328.297 46.1583C328.559 46.1583 328.837 46.2074 329.132 46.3056C329.426 46.3711 329.753 46.5347 330.113 46.7965C330.703 47.3202 331.406 47.762 332.224 48.1221C333.075 48.4493 334.041 48.613 335.121 48.613C336.332 48.613 337.461 48.3348 338.508 47.7784C339.556 47.1893 340.407 46.3711 341.061 45.3237C341.716 44.2764 342.043 43.0327 342.043 41.5926C342.043 40.1198 341.732 38.9252 341.11 38.0088C340.489 37.0596 339.687 36.356 338.705 35.8978C337.723 35.4068 336.692 35.1614 335.612 35.1614C334.99 35.1614 334.466 35.2268 334.041 35.3577C333.615 35.4559 333.206 35.5705 332.814 35.7014C332.421 35.7996 331.995 35.8487 331.537 35.8487C330.915 35.8487 330.424 35.6359 330.064 35.2105C329.704 34.7522 329.524 34.2122 329.524 33.5904C329.524 33.1976 329.606 32.854 329.77 32.5594C329.933 32.2648 330.163 31.9375 330.457 31.5775L339.539 21.857L340.619 22.8389H327.61C326.955 22.8389 326.399 22.6261 325.94 22.2007C325.515 21.7424 325.302 21.1861 325.302 20.5315C325.302 19.9096 325.515 19.386 325.94 18.9605C326.399 18.535 326.955 18.3223 327.61 18.3223H343.123C343.974 18.3223 344.596 18.5677 344.989 19.0587C345.414 19.5496 345.627 20.1224 345.627 20.7769C345.627 21.137 345.529 21.4806 345.332 21.8079C345.169 22.1352 344.956 22.4461 344.694 22.7407L335.563 32.5594L334.335 31.2339C334.597 31.103 335.039 30.972 335.661 30.8411C336.283 30.7102 336.79 30.6447 337.183 30.6447C339.048 30.6447 340.718 31.1193 342.19 32.0685C343.696 33.0176 344.858 34.294 345.676 35.8978C346.527 37.4688 346.953 39.2525 346.953 41.249C346.953 43.6382 346.412 45.7165 345.332 47.4838C344.252 49.2185 342.747 50.5604 340.816 51.5095C338.918 52.4587 336.725 52.9332 334.237 52.9332C332.994 52.9332 331.75 52.7696 330.506 52.4423C329.295 52.0823 328.248 51.575 327.364 50.9204C326.808 50.5931 326.431 50.2494 326.235 49.8894C326.039 49.4967 325.94 49.1203 325.94 48.7603C325.94 48.1384 326.153 47.5493 326.579 46.9929C327.037 46.4365 327.61 46.1583 328.297 46.1583Z" fill="#66CC99"/>
<path id="Vector_4" d="M283.034 52.4421C282.248 52.4421 281.561 52.213 280.972 51.7548C280.382 51.2639 280.088 50.6584 280.088 49.9384V20.5804C280.088 19.8604 280.333 19.2713 280.824 18.8131C281.315 18.3221 281.904 18.0767 282.592 18.0767H296.436C298.203 18.0767 299.823 18.5185 301.296 19.4022C302.769 20.2531 303.947 21.4478 304.831 22.986C305.747 24.4916 306.206 26.2262 306.206 28.1899C306.206 29.4991 305.944 30.7592 305.42 31.9701C304.897 33.1484 304.193 34.1957 303.309 35.1121C302.425 36.0285 301.427 36.7158 300.314 37.1741L299.774 36.2413C300.789 36.6013 301.673 37.125 302.425 37.8123C303.178 38.4668 303.597 39.1893 304.319 40.138C305.041 41.0866 305.707 42.5803 305.881 43.1165C306.055 43.6526 306.401 44.9695 306.519 45.7808C306.636 46.5921 306.74 47.0391 306.788 47.3657C306.835 47.6923 306.932 48.5192 306.932 48.5192C306.932 48.5192 307.047 49.7899 307.059 50.1366C307.072 50.4833 307.059 51.3319 306.706 51.7989C306.352 52.2659 306.086 52.4106 305.726 52.546C305.367 52.6815 304.642 52.7785 304.239 52.7363C303.836 52.6942 303.292 52.546 302.906 52.3272C302.52 52.1084 301.937 51.5082 301.658 50.8321C301.379 50.156 301.325 48.0963 301.325 48.0963C301.325 48.0963 301.456 46.095 300.913 44.5239C300.37 42.9527 299.987 42.3289 299.725 41.7398C299.463 41.1506 299.103 40.6761 298.645 40.316C298.187 39.9233 297.647 39.6451 297.025 39.4815C296.403 39.2851 295.716 39.1869 294.963 39.1869H284.555L285.243 38.205V49.9384C285.243 50.6584 285.046 51.2639 284.654 51.7548C284.261 52.213 283.721 52.4421 283.034 52.4421ZM284.604 34.9157H296.338C297.091 34.883 297.811 34.5885 298.498 34.0321C299.218 33.4429 299.791 32.6574 300.216 31.6756C300.674 30.6937 300.904 29.5809 300.904 28.3372C300.904 26.7662 300.429 25.4571 299.48 24.4097C298.563 23.3297 297.467 22.7896 296.191 22.7896H284.703L285.243 21.5132V35.9467L284.604 34.9157Z" fill="#66CC99"/>
<path id="Vector_5" d="M274.062 35.2596C274.062 37.747 273.653 40.0708 272.834 42.2309C272.016 44.3583 270.854 46.2238 269.349 47.8276C267.876 49.4313 266.125 50.6914 264.096 51.6078C262.067 52.4915 259.841 52.9333 257.419 52.9333C255.03 52.9333 252.821 52.4915 250.791 51.6078C248.762 50.6914 246.995 49.4313 245.489 47.8276C244.017 46.2238 242.871 44.3583 242.053 42.2309C241.267 40.0708 240.875 37.747 240.875 35.2596C240.875 32.7722 241.267 30.4648 242.053 28.3374C242.871 26.1773 244.017 24.2954 245.489 22.6917C246.995 21.0879 248.762 19.8442 250.791 18.9606C252.821 18.0441 255.03 17.5859 257.419 17.5859C259.841 17.5859 262.067 18.0441 264.096 18.9606C266.125 19.8442 267.876 21.0879 269.349 22.6917C270.854 24.2954 272.016 26.1773 272.834 28.3374C273.653 30.4648 274.062 32.7722 274.062 35.2596ZM268.76 35.2596C268.76 32.8377 268.269 30.6612 267.287 28.7302C266.338 26.7992 265.012 25.2773 263.31 24.1645C261.608 23.0517 259.645 22.4953 257.419 22.4953C255.226 22.4953 253.279 23.0517 251.577 24.1645C249.875 25.2773 248.549 26.7992 247.6 28.7302C246.651 30.6285 246.177 32.8049 246.177 35.2596C246.177 37.6816 246.651 39.858 247.6 41.7891C248.549 43.7201 249.875 45.242 251.577 46.3548C253.279 47.4675 255.226 48.0239 257.419 48.0239C259.645 48.0239 261.608 47.4675 263.31 46.3548C265.012 45.242 266.338 43.7201 267.287 41.7891C268.269 39.858 268.76 37.6816 268.76 35.2596Z" fill="#66CC99"/>
<path id="Vector_6" d="M224.497 52.4421C223.711 52.4421 223.073 52.213 222.582 51.7548C222.124 51.2639 221.895 50.6584 221.895 49.9384V20.5313H227.148V49.9384C227.148 50.6584 226.886 51.2639 226.362 51.7548C225.871 52.213 225.249 52.4421 224.497 52.4421ZM213.352 22.7896C212.665 22.7896 212.076 22.5769 211.585 22.1514C211.094 21.6932 210.849 21.1041 210.849 20.3841C210.849 19.6967 211.094 19.1404 211.585 18.7149C212.076 18.2894 212.665 18.0767 213.352 18.0767H235.69C236.377 18.0767 236.95 18.3058 237.408 18.764C237.899 19.1894 238.145 19.7458 238.145 20.4332C238.145 21.1532 237.899 21.7259 237.408 22.1514C236.95 22.5769 236.377 22.7896 235.69 22.7896H213.352Z" fill="#66CC99"/>
<path id="Vector_7" d="M205.37 49.9384C205.337 50.6584 205.059 51.2639 204.535 51.7548C204.044 52.213 203.455 52.4421 202.768 52.4421C202.015 52.4421 201.393 52.213 200.902 51.7548C200.444 51.2639 200.215 50.6584 200.215 49.9384V20.5804C200.215 19.8604 200.46 19.2713 200.951 18.8131C201.442 18.3221 202.08 18.0767 202.866 18.0767C203.52 18.0767 204.093 18.3221 204.584 18.8131C205.108 19.2713 205.37 19.8604 205.37 20.5804V49.9384Z" fill="#66CC99"/>
<path id="Vector_8" d="M189.984 18.0767C190.638 18.0767 191.162 18.3058 191.555 18.764C191.98 19.1894 192.193 19.7295 192.193 20.3841V49.9384C192.193 50.6584 191.947 51.2639 191.456 51.7548C190.998 52.213 190.409 52.4421 189.689 52.4421C189.362 52.4421 189.002 52.3767 188.609 52.2458C188.249 52.1149 187.971 51.9348 187.774 51.7057L167.597 25.5389L168.726 24.9007V50.1838C168.726 50.8057 168.513 51.3457 168.088 51.8039C167.662 52.2294 167.122 52.4421 166.468 52.4421C165.78 52.4421 165.224 52.2294 164.799 51.8039C164.406 51.3457 164.209 50.8057 164.209 50.1838V20.5804C164.209 19.8277 164.455 19.2222 164.946 18.764C165.437 18.3058 166.026 18.0767 166.713 18.0767C167.073 18.0767 167.45 18.1585 167.842 18.3221C168.268 18.453 168.579 18.6658 168.775 18.9603L188.462 44.5872L187.725 45.2745V20.3841C187.725 19.7295 187.938 19.1894 188.363 18.764C188.789 18.3058 189.329 18.0767 189.984 18.0767Z" fill="#66CC99"/>
<path id="Vector_9" d="M158.184 35.2596C158.184 37.747 157.775 40.0708 156.956 42.2309C156.138 44.3583 154.976 46.2238 153.471 47.8276C151.998 49.4313 150.247 50.6914 148.218 51.6078C146.189 52.4915 143.963 52.9333 141.541 52.9333C139.152 52.9333 136.943 52.4915 134.913 51.6078C132.884 50.6914 131.117 49.4313 129.611 47.8276C128.139 46.2238 126.993 44.3583 126.175 42.2309C125.389 40.0708 124.997 37.747 124.997 35.2596C124.997 32.7722 125.389 30.4648 126.175 28.3374C126.993 26.1773 128.139 24.2954 129.611 22.6917C131.117 21.0879 132.884 19.8442 134.913 18.9606C136.943 18.0441 139.152 17.5859 141.541 17.5859C143.963 17.5859 146.189 18.0441 148.218 18.9606C150.247 19.8442 151.998 21.0879 153.471 22.6917C154.976 24.2954 156.138 26.1773 156.956 28.3374C157.775 30.4648 158.184 32.7722 158.184 35.2596ZM152.882 35.2596C152.882 32.8377 152.391 30.6612 151.409 28.7302C150.46 26.7992 149.134 25.2773 147.432 24.1645C145.73 23.0517 143.767 22.4953 141.541 22.4953C139.348 22.4953 137.401 23.0517 135.699 24.1645C133.997 25.2773 132.672 26.7992 131.722 28.7302C130.773 30.6285 130.299 32.8049 130.299 35.2596C130.299 37.6816 130.773 39.858 131.722 41.7891C132.672 43.7201 133.997 45.242 135.699 46.3548C137.401 47.4675 139.348 48.0239 141.541 48.0239C143.767 48.0239 145.73 47.4675 147.432 46.3548C149.134 45.242 150.46 43.7201 151.409 41.7891C152.391 39.858 152.882 37.6816 152.882 35.2596Z" fill="#66CC99"/>
<path id="Vector_10" d="M89.047 18.0278C89.4398 18.0278 89.8489 18.126 90.2743 18.3224C90.6998 18.5188 91.0271 18.797 91.2562 19.157L103.726 38.1562L101.615 38.058L114.33 19.157C114.854 18.4042 115.525 18.0278 116.343 18.0278C116.998 18.0278 117.57 18.2733 118.061 18.7642C118.585 19.2224 118.847 19.8116 118.847 20.5316V49.9386C118.847 50.6587 118.618 51.2642 118.159 51.7551C117.701 52.2133 117.096 52.4424 116.343 52.4424C115.558 52.4424 114.919 52.2133 114.428 51.7551C113.97 51.2642 113.741 50.6587 113.741 49.9386V25.0482L115.312 25.3919L104.511 41.8382C104.282 42.1328 103.988 42.3946 103.628 42.6237C103.268 42.8201 102.891 42.9019 102.499 42.8692C102.139 42.9019 101.762 42.8201 101.369 42.6237C101.009 42.3946 100.715 42.1328 100.486 41.8382L90.078 25.6373L91.2562 23.6736V49.9386C91.2562 50.6587 91.0271 51.2642 90.5689 51.7551C90.1434 52.2133 89.5707 52.4424 88.8506 52.4424C88.1633 52.4424 87.5906 52.2133 87.1324 51.7551C86.7069 51.2642 86.4941 50.6587 86.4941 49.9386V20.5316C86.4941 19.8443 86.7396 19.2552 87.2305 18.7642C87.7542 18.2733 88.3597 18.0278 89.047 18.0278Z" fill="#66CC99"/>
</g>
</g>
</g>
<defs>
<linearGradient id="paint0_linear_437_72402" x1="45.2454" y1="7.69183" x2="16.7197" y2="61.833" gradientUnits="userSpaceOnUse">
<stop stop-color="#66CC99"/>
<stop offset="1" stop-color="#59B286"/>
</linearGradient>
</defs>
</svg>
